<?xml version="1.0" encoding="utf-8"?>
<svg version="1.1" id="Warstwa_1" xmlns="http://www.w3.org/2000/svg" xmlns:xlink="http://www.w3.org/1999/xlink" x="0px" y="0px"
     viewBox="0 0 2179.76 1237.66" style="enable-background:new 0 0 2179.76 1237.66;" xml:space="preserve">
<path d="M38.91,201.19h250.86v50.45H99.03v154.81h176.23v49.76H99.03v210.79H38.91V201.19z"/>
    <path d="M654.68,496.97c0,123.71-85.69,177.62-166.55,177.62c-90.54,0-160.34-66.35-160.34-172.09
	c0-111.96,73.26-177.61,165.86-177.61C589.72,324.89,654.68,394.69,654.68,496.97z M389.3,500.43
	c0,73.26,42.16,128.55,101.59,128.55c58.06,0,101.59-54.6,101.59-129.93c0-56.67-28.33-128.54-100.21-128.54
	C420.4,370.51,389.3,436.85,389.3,500.43z"/>
    <path d="M1258.7,496.97c0,123.71-85.69,177.62-166.55,177.62c-90.54,0-160.34-66.35-160.34-172.09
	c0-111.96,73.26-177.61,165.86-177.61C1193.74,324.89,1258.7,394.69,1258.7,496.97z M993.32,500.43
	c0,73.26,42.16,128.55,101.59,128.55c58.06,0,101.59-54.6,101.59-129.93c0-56.67-28.33-128.54-100.21-128.54
	C1024.42,370.51,993.32,436.85,993.32,500.43z"/>
    <path d="M1092.07,969.15l-3.59-31.32h-1.54c-13.87,19.51-40.57,36.97-76,36.97c-50.32,0-76-35.43-76-71.38
	c0-60.08,53.41-92.95,149.43-92.43v-5.14c0-20.54-5.65-57.51-56.49-57.51c-23.11,0-47.25,7.19-64.7,18.49l-10.27-29.78
	c20.54-13.35,50.32-22.08,81.65-22.08c76,0,94.49,51.86,94.49,101.67v92.95c0,21.57,1.02,42.62,4.1,59.57H1092.07z M1085.39,842.31
	c-49.3-1.03-105.27,7.7-105.27,55.97c0,29.27,19.51,43.13,42.62,43.13c32.35,0,52.89-20.54,60.08-41.59
	c1.54-4.62,2.57-9.76,2.57-14.38V842.31z"/>
    <path d="M1201.96,801.74c0-31.83-1.03-57.51-2.05-81.13h40.56l2.05,42.62h1.03c18.48-30.3,47.76-48.27,88.33-48.27
	c60.08,0,105.27,50.83,105.27,126.32c0,89.35-54.43,133.52-112.98,133.52c-32.87,0-61.62-14.38-76.51-39.03h-1.03v135.06h-44.67
	V801.74z M1246.63,867.98c0,6.68,1.03,12.84,2.05,18.48c8.22,31.33,35.44,52.9,67.79,52.9c47.76,0,75.48-39.03,75.48-96.03
	c0-49.81-26.18-92.44-73.95-92.44c-30.8,0-59.57,22.08-68.29,55.97c-1.54,5.65-3.08,12.33-3.08,18.49V867.98z"/>
    <path d="M1519.3,853.09c1.03,61.11,40.05,86.27,85.25,86.27c32.35,0,51.87-5.65,68.81-12.84l7.71,32.35
	c-15.92,7.19-43.14,15.4-82.68,15.4c-76.51,0-122.21-50.32-122.21-125.3c0-74.98,44.16-134.03,116.57-134.03
	c81.13,0,102.7,71.38,102.7,117.08c0,9.24-1.02,16.43-1.54,21.06H1519.3z M1651.8,820.74c0.51-28.76-11.81-73.43-62.65-73.43
	c-45.7,0-65.73,42.11-69.33,73.43H1651.8z"/>
    <path d="M804.89,363.2v134.86h87.8v65h-87.8v253.23c0,58.22,11.84,91.2,46,91.2c16.02,0,27.87-2.91,35.53-5.81l2.8,64.03
	c-11.85,6.79-30.66,11.64-54.36,11.64c-28.56,0-51.56-12.61-66.19-35.9c-17.42-25.22-23.7-66.94-23.7-122.25V563.06H692.7v-65h52.26
	V385.51L804.89,363.2z"/>
    <path d="M2059.02,969.15l-3.6-31.32h-1.54c-13.86,19.51-40.56,36.97-76,36.97c-50.32,0-76-35.43-76-71.38
	c0-60.08,53.4-92.95,149.43-92.43v-5.14c0-20.54-5.65-57.51-56.48-57.51c-23.12,0-47.25,7.19-64.71,18.49l-10.27-29.78
	c20.54-13.35,50.32-22.08,81.65-22.08c76,0,94.48,51.86,94.48,101.67v92.95c0,21.57,1.03,42.62,4.11,59.57H2059.02z M2052.33,842.31
	c-49.3-1.03-105.27,7.7-105.27,55.97c0,29.27,19.51,43.13,42.62,43.13c32.35,0,52.9-20.54,60.09-41.59
	c1.54-4.62,2.56-9.76,2.56-14.38V842.31z"/>
    <path d="M1800.51,658.21v71.38h64.7v34.4h-64.7v134.03c0,30.81,8.73,48.27,33.9,48.27c11.81,0,20.54-1.54,26.18-3.08l2.06,33.89
	c-8.74,3.59-22.6,6.16-40.06,6.16c-21.05,0-38-6.68-48.78-19c-12.84-13.35-17.46-35.43-17.46-64.7V763.99h-38.51v-34.4h38.51v-59.57
	L1800.51,658.21z"/>
</svg>
