<?xml version="1.0" encoding="utf-8"?>
<!-- Generator: Adobe Illustrator 26.0.0, SVG Export Plug-In . SVG Version: 6.00 Build 0)  -->
<svg version="1.1" id="Warstwa_1" xmlns="http://www.w3.org/2000/svg" xmlns:xlink="http://www.w3.org/1999/xlink" x="0px" y="0px"
     viewBox="0 0 1913.36 382.98" style="enable-background:new 0 0 1913.36 382.98;" xml:space="preserve">
<style type="text/css">
	.st0{fill:#5D62A8;}
	.st1{fill:#5E60A6;}
	.st2{fill:#DB9023;}
</style>
    <rect x="1210.89" y="168.68" class="st0" width="58.21" height="59.57"/>
    <path class="st0" d="M1210.89,130.89V71.32c0,0,248.85-2.04,248.51,0c-0.34,2.04,0.34,249.19,0,249.19c-0.34,0-248.51,0-248.51,0
	v-58.89l189.28-1.02l-0.34-129.02L1210.89,130.89z"/>
    <rect x="1497.19" y="131.23" class="st1" width="58.55" height="189.28"/>
    <path class="st1" d="M1849.19,72l-249.87-1.59v60.82h189.96v33.02l-189.96-0.68c0,0,0,156.26,0,156.94s247.15,0,249.87,0
	C1851.91,320.51,1849.19,72,1849.19,72z M1789.62,262.3h-130.04v-33.7h130.04V262.3z"/>
    <rect x="1497.19" y="71.32" class="st2" width="58.55" height="59.91"/>
    <path class="st0" d="M640.68,71.32c3.4,1.36,248.51,0,248.51,0v254.72h-58.21V132.26l-33.36-0.68l0.34,194.46h-59.23V131.91h-33.36
	v194.12h-64.68V71.32z"/>
    <path class="st0" d="M1171.74,71.32H922.89v249.19h248.85v-59.57H981.79l-0.34-32h190.3V71.32z M1108.34,164.68H982.72v-33.45
	h125.62V164.68z"/>
    <path class="st0" d="M136.25,325.21l-75.23-0.44L60.45,66.26l75.8,1.12V325.21z M69.01,316.82l59.24,0.35V75.26l-59.78-0.88
	L69.01,316.82z"/>
    <path class="st0" d="M356.35,325.19h-99.32L126.65,190.44L249.57,66.32h99.91L227.86,192.84L356.35,325.19z M260.42,317.19h77.02
	l-120.7-124.33L330.69,74.32H252.9L137.84,190.5L260.42,317.19z"/>
    <path class="st0" d="M605.85,325.19H349.36V159.94l189.62-1.36v-23.02l-189.62-0.68V67.32H607.6L605.85,325.19z M357.36,317.19
	H597.9l1.65-241.87H357.36v51.59l189.62,0.68v38.94l-189.62,1.36V317.19z"/>
    <path class="st0" d="M542.64,265.28H408.6v-39.32h137.87l0.17,3.83c1.38,31.71,0.32,32.82-1.02,34.22l-1.18,1.23L542.64,265.28z
	 M416.6,257.28h122.6c0.15-4.63-0.05-14.08-0.4-23.32H416.6V257.28z"/>
</svg>
